<svg width="80" height="80" viewBox="0 0 80 80" xmlns="http://www.w3.org/2000/svg">
  <!-- ESP32 Board Icon -->
  <rect x="10" y="20" width="60" height="40" rx="4" fill="#333" stroke="#666" stroke-width="1"/>
  
  <!-- Chip -->
  <rect x="25" y="30" width="30" height="20" rx="2" fill="#666"/>
  <text x="40" y="42" font-family="Arial, sans-serif" font-size="6" text-anchor="middle" fill="white">ESP32</text>
  
  <!-- Pins -->
  <rect x="8" y="25" width="4" height="2" fill="#FFD700"/>
  <rect x="8" y="30" width="4" height="2" fill="#FFD700"/>
  <rect x="8" y="35" width="4" height="2" fill="#FFD700"/>
  <rect x="8" y="40" width="4" height="2" fill="#FFD700"/>
  <rect x="8" y="45" width="4" height="2" fill="#FFD700"/>
  <rect x="8" y="50" width="4" height="2" fill="#FFD700"/>
  
  <rect x="68" y="25" width="4" height="2" fill="#FFD700"/>
  <rect x="68" y="30" width="4" height="2" fill="#FFD700"/>
  <rect x="68" y="35" width="4" height="2" fill="#FFD700"/>
  <rect x="68" y="40" width="4" height="2" fill="#FFD700"/>
  <rect x="68" y="45" width="4" height="2" fill="#FFD700"/>
  <rect x="68" y="50" width="4" height="2" fill="#FFD700"/>
  
  <!-- WiFi signal -->
  <path d="M40 15 Q35 10, 30 15" stroke="#2196F3" stroke-width="1.5" fill="none"/>
  <path d="M40 15 Q42 12, 44 15" stroke="#2196F3" stroke-width="1.5" fill="none"/>
  <path d="M40 15 Q45 8, 50 15" stroke="#2196F3" stroke-width="1.5" fill="none"/>
  <circle cx="40" cy="15" r="1" fill="#2196F3"/>
  
  <text x="40" y="75" font-family="Arial, sans-serif" font-size="8" text-anchor="middle" fill="#666">ESP32 Device</text>
</svg>